<svg width="360" height="800" viewBox="0 0 360 800" fill="none" xmlns="http://www.w3.org/2000/svg">
<g clip-path="url(#clip0_8_3986)">
<rect width="360" height="800" rx="16" fill="#000100"/>
<path fill-rule="evenodd" clip-rule="evenodd" d="M30 469L60 439V499H0L30 469ZM0 559V499V439H60H120L90 469L60 499L30 529L0 559ZM60 559H0V619V679V739V799H60H120H180H240H300H360V739V679V619V559V499V439H300H240H180H120V499H60V559ZM120 559H60L90 529L120 499V559ZM180 499H120L150 469L180 439L210 469L240 499H180ZM240 559L210 529L180 499L150 529L120 559L90 589L60 619V559L30 589L0 619L30 649L60 679H0L30 709L60 739H0L30 769L60 799V739L90 769L120 799V739L150 769L180 799L210 769L240 739V799L270 769L300 739V799L330 769L360 739H300L330 709L360 679H300L330 649L360 619L330 589L300 559H360L330 529L300 499H360L330 469L300 439V499L270 469L240 439V499V559ZM300 619V559V499H240L270 529L300 559H240H180H120V619V679L90 649L60 619V679V739H120H180H240H300V679V619ZM240 679H300L270 709L240 739V679ZM180 679H240L210 709L180 739L150 709L120 679H180ZM240 619V679L270 649L300 619L270 589L240 559V619ZM240 619L210 649L180 679L150 649L120 619L150 589L180 559L210 589L240 619ZM120 679V739L90 709L60 679H120Z" fill="#DB0D11"/>
<path fill-rule="evenodd" clip-rule="evenodd" d="M30 30L60 0V60H0L30 30ZM0 120V60V0H60H120L90 30L60 60L30 90L0 120ZM60 120H0V180V240V300V360H60H120H180H240H300H360V300V240V180V120V60V0H300H240H180H120V60H60V120ZM120 120H60L90 90L120 60V120ZM180 60H120L150 30L180 0L210 30L240 60H180ZM240 120L210 90L180 60L150 90L120 120L90 150L60 180V120L30 150L0 180L30 210L60 240H0L30 270L60 300H0L30 330L60 360V300L90 330L120 360V300L150 330L180 360L210 330L240 300V360L270 330L300 300V360L330 330L360 300H300L330 270L360 240H300L330 210L360 180L330 150L300 120H360L330 90L300 60H360L330 30L300 0V60L270 30L240 0V60V120ZM300 180V120V60H240L270 90L300 120H240H180H120V180V240L90 210L60 180V240V300H120H180H240H300V240V180ZM240 240H300L270 270L240 300V240ZM180 240H240L210 270L180 300L150 270L120 240H180ZM240 180V240L270 210L300 180L270 150L240 120V180ZM240 180L210 210L180 240L150 210L120 180L150 150L180 120L210 150L240 180ZM120 240V300L90 270L60 240H120Z" fill="#DB0D11"/>
<g clip-path="url(#clip1_8_3986)">
<path d="M178.359 172.022C178.824 170.363 181.176 170.363 181.641 172.022L195.922 222.997C196.345 224.507 198.41 224.692 199.095 223.282L223.993 172.049C224.76 170.47 227.126 170.944 227.226 172.697L230.456 229.023C230.549 230.645 232.644 231.229 233.562 229.889L273.369 171.806C274.412 170.284 276.792 171.274 276.448 173.086L263.517 241.231C263.197 242.917 265.288 243.965 266.447 242.699L331.547 171.626C332.864 170.188 335.174 171.734 334.345 173.501L294.102 259.311C293.331 260.956 295.325 262.504 296.728 261.349L407.037 170.499C408.619 169.196 410.732 171.282 409.449 172.88L319.819 284.535C318.684 285.949 320.25 287.923 321.885 287.137L407.57 245.979C409.33 245.134 410.898 247.432 409.469 248.762L338.565 314.776C337.308 315.947 338.377 318.031 340.061 317.693L407.981 304.065C409.791 303.702 410.805 306.073 409.293 307.131L351.399 347.648C350.064 348.583 350.677 350.678 352.305 350.746L408.361 353.088C410.116 353.161 410.626 355.519 409.059 356.311L357.94 382.133C356.544 382.838 356.756 384.894 358.267 385.299L408.852 398.862C410.512 399.307 410.543 401.653 408.894 402.141L358.25 417.14C356.748 417.585 356.591 419.649 358.009 420.316L409.016 444.299C410.602 445.045 410.163 447.412 408.415 447.54L352.19 451.659C350.576 451.778 350.02 453.868 351.363 454.772L409.46 493.869C410.989 494.898 410.022 497.285 408.208 496.96L340.008 484.727C338.323 484.425 337.295 486.517 338.563 487.667L409.644 552.05C411.089 553.359 409.559 555.676 407.788 554.86L321.865 515.276C320.221 514.519 318.687 516.507 319.836 517.905L409.629 627.165C410.928 628.747 408.845 630.856 407.247 629.577L296.638 541.002C295.229 539.873 293.262 541.425 294.033 543.058L333.96 627.707C334.79 629.468 332.494 631.02 331.17 629.593L266.395 559.745C265.235 558.494 263.16 559.537 263.471 561.214L275.872 628.131C276.207 629.937 273.84 630.921 272.796 629.41L233.516 572.566C232.599 571.239 230.523 571.811 230.415 573.42L226.648 629.491C226.53 631.239 224.168 631.692 223.411 630.112L199.078 579.297C198.4 577.882 196.332 578.058 195.903 579.567L181.639 629.769C181.17 631.42 178.83 631.42 178.361 629.769L164.082 579.512C163.655 578.01 161.599 577.826 160.913 579.229L136.005 630.125C135.234 631.7 132.875 631.225 132.774 629.475L129.543 573.489C129.45 571.871 127.364 571.285 126.442 572.617L86.4342 630.372C85.3846 631.888 83.0111 630.889 83.361 629.079L96.4575 561.345C96.7836 559.659 94.6918 558.604 93.5299 559.87L28.4519 630.739C27.1325 632.175 24.8254 630.627 25.6551 628.862L65.9868 543.042C66.7544 541.408 64.7886 539.859 63.38 540.987L-47.2475 629.577C-48.8455 630.856 -50.9285 628.747 -49.6287 627.165L40.1742 517.893C41.3225 516.496 39.7898 514.508 38.1466 515.263L-47.597 554.669C-49.368 555.482 -50.8968 553.166 -49.452 551.858L21.4729 487.633C22.7388 486.486 21.7186 484.398 20.0362 484.691L-48.0233 496.576C-49.8375 496.893 -50.7943 494.506 -49.2636 493.482L8.60869 454.774C9.95609 453.873 9.40231 451.777 7.78561 451.659L-48.6072 447.54C-50.3569 447.412 -50.7946 445.042 -49.206 444.298L2.00035 420.305C3.41689 419.641 3.26505 417.579 1.76656 417.13L-48.8992 401.947C-50.5463 401.453 -50.5082 399.108 -48.8459 398.668L1.74428 385.281C3.25442 384.882 3.47545 382.83 2.08507 382.118L-49.0662 355.922C-50.6296 355.121 -50.1054 352.765 -48.35 352.703L7.67574 350.715C9.30618 350.657 9.93074 348.562 8.59799 347.621L-49.2986 306.742C-50.8067 305.678 -49.7807 303.31 -47.9724 303.682L19.919 317.659C21.6036 318.005 22.6824 315.922 21.4269 314.746L-49.4722 248.375C-50.8978 247.04 -49.3224 244.746 -47.565 245.598L38.0728 287.089C39.7077 287.881 41.2815 285.906 40.1442 284.489L-49.4491 172.88C-50.7321 171.282 -48.6194 169.196 -47.0374 170.499L63.2024 261.292C64.6084 262.45 66.6061 260.89 65.8243 259.245L25.0822 173.509C24.2444 171.745 26.5482 170.187 27.8726 171.621L93.5276 242.709C94.6922 243.97 96.7798 242.912 96.4514 241.227L83.1693 173.095C82.8162 171.283 85.1931 170.282 86.2428 171.8L126.396 229.866C127.323 231.206 129.421 230.605 129.499 228.978L132.196 172.713C132.28 170.958 134.642 170.463 135.423 172.037L160.896 223.349C161.59 224.747 163.641 224.554 164.062 223.052L178.359 172.022Z" fill="#E1E43F"/>
</g>
<g clip-path="url(#clip2_8_3986)">
<path fill-rule="evenodd" clip-rule="evenodd" d="M188.235 188.317C185.297 188 181.699 188 174.504 188C167.308 188 163.71 188 160.772 188.317C132.843 191.329 111.68 214.916 111.702 243.007C111.703 243.665 111.722 244.355 111.761 245.108L109.142 241.85C104.633 236.242 102.378 233.438 100.291 231.347C80.4431 211.468 48.7999 209.754 26.9215 227.373C24.6199 229.226 22.0759 231.77 16.9877 236.858C11.8995 241.947 9.3554 244.491 7.50196 246.792C-10.1171 268.671 -8.40325 300.314 11.4758 320.161C13.5669 322.249 16.3707 324.504 21.9783 329.012L21.9789 329.013L34.3133 338.93L34.3139 338.93C37.8005 341.733 39.5439 343.135 41.1409 344.243C41.2 344.284 41.2592 344.325 41.3185 344.365L36.6921 343.863C29.5384 343.086 25.9616 342.697 23.0065 342.695C-5.08434 342.672 -28.6713 363.836 -31.6832 391.765C-32 394.703 -32 398.301 -32 405.496C-32 412.692 -32 416.29 -31.6832 419.228C-28.6713 447.157 -5.08434 468.32 23.0065 468.298C23.7547 468.297 24.5428 468.272 25.4187 468.222L21.9789 470.987C16.3709 475.496 13.5669 477.751 11.4758 479.839C-8.40325 499.686 -10.1171 531.329 7.50196 553.208C9.35526 555.509 11.8991 558.053 16.9865 563.14L16.9877 563.142C22.0759 568.23 24.6199 570.774 26.9215 572.627C48.7999 590.246 80.4431 588.532 100.291 568.653C102.378 566.562 104.633 563.758 109.142 558.15L111.761 554.892C111.722 555.645 111.703 556.335 111.702 556.993C111.68 585.084 132.843 608.671 160.772 611.683C163.71 612 167.308 612 174.504 612C181.699 612 185.297 612 188.235 611.683C216.164 608.671 237.328 585.084 237.305 556.993C237.303 554.039 236.914 550.462 236.137 543.309L236.137 543.308L235.635 538.681C235.675 538.741 235.716 538.8 235.757 538.859C236.865 540.456 238.267 542.2 241.071 545.687L250.988 558.021L250.988 558.022C255.496 563.629 257.751 566.433 259.839 568.524C279.686 588.403 311.329 590.117 333.208 572.498C335.509 570.645 338.053 568.1 343.142 563.012C348.23 557.924 350.774 555.38 352.627 553.079C370.246 531.2 368.533 499.557 348.654 479.709C346.562 477.622 343.758 475.367 338.15 470.858L334.892 468.239C335.645 468.278 336.335 468.297 336.993 468.298C365.084 468.32 388.671 447.157 391.683 419.228C392 416.29 392 412.692 392 405.496C392 398.301 392 394.703 391.683 391.765C388.671 363.836 365.084 342.672 336.993 342.695C334.038 342.697 330.462 343.086 323.308 343.863L319.056 344.325C320.635 343.225 322.377 341.824 325.812 339.062L325.814 339.06L325.815 339.059L325.816 339.059L338.15 329.142C343.758 324.633 346.562 322.378 348.654 320.291C368.533 300.443 370.246 268.8 352.627 246.921C350.774 244.62 348.23 242.076 343.142 236.988L343.14 236.987C338.053 231.899 335.509 229.355 333.208 227.502C311.329 209.883 279.686 211.597 259.839 231.476C257.751 233.567 255.496 236.371 250.988 241.979L241.071 254.313C238.267 257.8 236.865 259.544 235.757 261.141C235.716 261.2 235.675 261.259 235.635 261.319L236.137 256.692L236.137 256.691C236.914 249.538 237.303 245.961 237.305 243.007C237.328 214.916 216.164 191.329 188.235 188.317ZM80.8124 354.401C80.9773 354.043 81.1441 353.686 81.3128 353.33C80.7124 353.427 80.1107 353.515 79.5078 353.593C79.9468 353.856 80.3817 354.126 80.8124 354.401ZM226.407 500.492C226.144 500.053 225.874 499.618 225.599 499.188C225.957 499.023 226.314 498.856 226.67 498.687C226.573 499.288 226.485 499.889 226.407 500.492ZM279.188 354.401C279.568 354.158 279.952 353.919 280.339 353.685C279.806 353.613 279.274 353.534 278.743 353.447C278.892 353.764 279.041 354.082 279.188 354.401ZM226.67 301.313C226.573 300.712 226.485 300.111 226.407 299.508C226.144 299.947 225.874 300.382 225.599 300.812C225.957 300.977 226.314 301.144 226.67 301.313Z" fill="#65DB23"/>
</g>
</g>
<defs>
<clipPath id="clip0_8_3986">
<rect width="360" height="800" rx="16" fill="white"/>
</clipPath>
<clipPath id="clip1_8_3986">
<rect width="460" height="460" fill="white" transform="translate(-50 170)"/>
</clipPath>
<clipPath id="clip2_8_3986">
<rect width="424" height="424" fill="white" transform="translate(-32 188)"/>
</clipPath>
</defs>
</svg>
