<svg width="360" height="800" viewBox="0 0 360 800" fill="none" xmlns="http://www.w3.org/2000/svg">
<rect width="360" height="800" rx="16" fill="#65DB23"/>
<g clip-path="url(#clip0_10_1110)">
<path d="M179.104 149.539C179.504 148.852 180.496 148.852 180.896 149.539L200.167 182.63C200.481 183.169 201.195 183.311 201.691 182.933L232.159 159.736C232.791 159.254 233.708 159.634 233.815 160.422L238.893 197.912C238.995 198.665 239.847 199.056 240.485 198.643L318.391 148.175C319.33 147.567 320.433 148.671 319.825 149.609L269.357 227.515C268.944 228.153 269.335 229.005 270.088 229.107L307.579 234.185C308.366 234.292 308.746 235.209 308.264 235.841L285.067 266.309C284.689 266.805 284.831 267.519 285.37 267.833L318.461 287.104C319.148 287.504 319.148 288.496 318.461 288.896L285.37 308.167C284.831 308.481 284.689 309.195 285.067 309.691L308.264 340.159C308.746 340.791 308.366 341.708 307.579 341.815L270.09 346.893C269.336 346.995 268.945 347.847 269.36 348.485L319.948 426.39C320.557 427.328 319.454 428.433 318.515 427.825L240.484 377.355C239.846 376.943 238.995 377.334 238.893 378.087L233.815 415.578C233.708 416.366 232.791 416.746 232.159 416.264L201.691 393.067C201.195 392.689 200.481 392.831 200.167 393.37L180.896 426.461C180.496 427.148 179.504 427.148 179.104 426.461L159.833 393.37C159.519 392.831 158.805 392.689 158.309 393.067L127.841 416.264C127.209 416.746 126.292 416.366 126.185 415.578L121.107 378.088C121.005 377.335 120.153 376.944 119.515 377.357L41.6093 427.825C40.6706 428.433 39.567 427.329 40.1751 426.391L90.6429 348.485C91.0563 347.847 90.6652 346.995 89.9117 346.893L52.4216 341.815C51.6339 341.708 51.2542 340.791 51.7357 340.159L74.9335 309.691C75.3112 309.195 75.169 308.481 74.6303 308.167L41.5389 288.896C40.852 288.496 40.852 287.504 41.5389 287.104L74.6303 267.833C75.169 267.519 75.3112 266.805 74.9336 266.309L51.7357 235.841C51.2542 235.209 51.6339 234.292 52.4216 234.185L89.9117 229.107C90.6652 229.005 91.0563 228.153 90.6429 227.515L40.1751 149.609C39.567 148.671 40.6706 147.567 41.6093 148.175L119.515 198.643C120.153 199.056 121.005 198.665 121.107 197.912L126.185 160.422C126.292 159.634 127.209 159.254 127.841 159.736L158.309 182.933C158.805 183.311 159.519 183.169 159.833 182.63L179.104 149.539Z" fill="#DB5018"/>
</g>
<g clip-path="url(#clip1_10_1110)">
<path fill-rule="evenodd" clip-rule="evenodd" d="M158.665 338.879C150.334 388.67 147.341 424.224 152.088 425.189C156.836 426.155 167.972 392.258 179.759 343.17C191.117 392.359 201.957 426.352 206.713 425.428C211.469 424.503 208.786 388.924 200.89 339.062C230.207 380.161 253.231 407.418 257.271 404.744C261.311 402.07 245.217 370.226 218.841 327.182C261.654 353.932 293.356 370.303 296.065 366.287C298.774 362.27 271.719 339.01 230.879 309.335C280.669 317.666 316.223 320.659 317.189 315.912C318.155 311.164 284.258 300.027 235.17 288.241C284.359 276.883 318.352 266.042 317.428 261.287C316.503 256.531 280.924 259.214 231.063 267.109C272.161 237.793 299.418 214.769 296.744 210.729C294.07 206.689 262.226 222.783 219.181 249.159C245.932 206.346 262.303 174.644 258.287 171.935C254.27 169.226 231.009 196.281 201.335 237.121C209.665 187.33 212.659 151.776 207.911 150.811C203.164 149.845 192.027 183.742 180.24 232.83C168.883 183.641 158.042 149.648 153.286 150.572C148.531 151.497 151.214 187.075 159.109 236.937C129.792 195.839 106.769 168.582 102.729 171.256C98.6888 173.93 114.783 205.774 141.159 248.818C98.3459 222.068 66.6437 205.696 63.9345 209.713C61.2254 213.729 88.2807 236.99 129.121 266.665C79.3303 258.334 43.7761 255.341 42.8102 260.089C41.8443 264.836 75.7415 275.973 124.829 287.759C75.6406 299.117 41.6476 309.957 42.572 314.713C43.4964 319.469 79.0754 316.786 128.937 308.89C87.8391 338.207 60.5818 361.231 63.2559 365.271C65.9299 369.311 97.7735 353.217 140.818 326.841C114.068 369.654 97.6962 401.356 101.713 404.065C105.729 406.774 128.99 379.719 158.665 338.879Z" fill="#000100"/>
</g>
<g clip-path="url(#clip2_10_1110)">
<path d="M177.937 150.583C178.975 149.247 180.994 149.247 182.032 150.583L205.228 180.447C229.118 211.205 256.764 238.851 287.521 262.741L317.386 285.937C318.722 286.975 318.722 288.994 317.386 290.032L287.521 313.228C256.764 337.118 229.118 364.764 205.228 395.521L182.032 425.386C180.994 426.722 178.975 426.722 177.937 425.386L154.741 395.521C130.851 364.764 103.205 337.118 72.4474 313.228L42.583 290.032C41.2467 288.994 41.2467 286.975 42.583 285.937L72.4474 262.741C103.205 238.851 130.851 211.205 154.741 180.447L177.937 150.583Z" fill="#F675C2"/>
<text fill="black" xml:space="preserve" style="white-space: pre" font-family="Inter" font-size="36" font-weight="bold" letter-spacing="-0.035em"><tspan x="130.644" y="275.091">Super </tspan><tspan x="146.734" y="327.091">top!</tspan></text>
</g>
<defs>
<clipPath id="clip0_10_1110">
<rect width="280" height="280" fill="white" transform="translate(40 148)"/>
</clipPath>
<clipPath id="clip1_10_1110">
<rect width="280" height="280" fill="white" transform="translate(40 148)"/>
</clipPath>
<clipPath id="clip2_10_1110">
<rect width="280" height="280" fill="white" transform="translate(40 148)"/>
</clipPath>
</defs>
</svg>
