<svg width="360" height="800" viewBox="0 0 360 800" fill="none" xmlns="http://www.w3.org/2000/svg">
<rect width="360" height="800" rx="16" fill="#000100"/>
<g clip-path="url(#clip0_10_1203)">
<path fill-rule="evenodd" clip-rule="evenodd" d="M110 288C71.3401 288 40 256.66 40 218C40 179.34 71.3401 148 110 148C148.66 148 180 179.34 180 218C180 179.34 211.34 148 250 148C288.66 148 320 179.34 320 218C320 256.66 288.66 288 250 288C288.66 288 320 319.34 320 358C320 396.66 288.66 428 250 428C211.34 428 180 396.66 180 358C180 396.66 148.66 428 110 428C71.3401 428 40 396.66 40 358C40 319.34 71.3401 288 110 288Z" fill="#ED213A"/>
</g>
<g clip-path="url(#clip1_10_1203)">
<path d="M179.008 151.244C179.307 150.265 180.693 150.265 180.992 151.244L189.702 179.733C189.971 180.614 191.171 180.732 191.607 179.92L205.707 153.678C206.191 152.777 207.55 153.047 207.653 154.065L210.637 183.706C210.729 184.623 211.883 184.973 212.469 184.262L231.418 161.274C232.069 160.485 233.349 161.015 233.251 162.033L230.395 191.687C230.307 192.604 231.37 193.172 232.084 192.589L255.153 173.74C255.945 173.093 257.097 173.863 256.802 174.842L248.472 202.521C248.177 203.499 249.326 204.269 250.119 203.625L318.202 148.339C319.17 147.553 320.447 148.83 319.661 149.798L264.375 217.881C263.731 218.674 264.501 219.823 265.479 219.528L293.158 211.198C294.137 210.903 294.907 212.055 294.26 212.847L275.411 235.916C274.828 236.63 275.396 237.693 276.313 237.605L305.967 234.749C306.985 234.651 307.515 235.931 306.726 236.582L283.739 255.531C283.027 256.117 283.377 257.271 284.294 257.363L313.935 260.348C314.953 260.45 315.223 261.809 314.322 262.293L288.08 276.393C287.268 276.829 287.386 278.029 288.267 278.298L316.756 287.008C317.735 287.307 317.735 288.693 316.756 288.992L288.267 297.702C287.386 297.971 287.268 299.171 288.08 299.607L314.322 313.707C315.223 314.191 314.953 315.55 313.935 315.652L284.294 318.637C283.377 318.729 283.027 319.883 283.739 320.469L306.726 339.418C307.515 340.069 306.985 341.349 305.967 341.251L276.313 338.395C275.396 338.307 274.828 339.37 275.411 340.084L294.26 363.153C294.907 363.945 294.137 365.097 293.158 364.802L265.48 356.472C264.502 356.178 263.732 357.326 264.376 358.119L319.778 426.319C320.564 427.287 319.287 428.564 318.319 427.778L250.119 372.376C249.326 371.732 248.178 372.502 248.472 373.48L256.802 401.158C257.097 402.137 255.945 402.907 255.153 402.26L232.084 383.411C231.37 382.828 230.307 383.396 230.395 384.313L233.251 413.967C233.349 414.985 232.069 415.515 231.418 414.726L212.469 391.738C211.883 391.027 210.729 391.377 210.637 392.294L207.653 421.935C207.55 422.953 206.191 423.223 205.707 422.322L191.607 396.08C191.171 395.268 189.971 395.386 189.702 396.267L180.992 424.756C180.693 425.735 179.307 425.735 179.008 424.756L170.299 396.267C170.029 395.386 168.83 395.268 168.393 396.08L154.293 422.322C153.809 423.223 152.45 422.953 152.348 421.935L149.363 392.294C149.271 391.377 148.117 391.027 147.531 391.738L128.582 414.726C127.931 415.515 126.651 414.985 126.75 413.967L129.605 384.313C129.693 383.396 128.63 382.828 127.917 383.411L104.847 402.26C104.055 402.907 102.903 402.137 103.198 401.158L111.528 373.479C111.823 372.501 110.675 371.731 109.882 372.375L41.7977 427.661C40.8299 428.447 39.553 427.17 40.3389 426.202L95.625 358.119C96.2689 357.326 95.4992 356.177 94.521 356.472L66.8424 364.802C65.8627 365.097 65.0931 363.945 65.7405 363.153L84.5893 340.084C85.1725 339.37 84.6043 338.307 83.6868 338.395L54.0334 341.251C53.0149 341.349 52.4848 340.069 53.2743 339.418L76.2616 320.469C76.9728 319.883 76.6229 318.729 75.7058 318.637L46.0651 315.652C45.0471 315.55 44.7769 314.191 45.6782 313.707L71.9205 299.607C72.7324 299.171 72.6143 297.971 71.7328 297.702L43.2439 288.992C42.2655 288.693 42.2654 287.307 43.2439 287.008L71.7328 278.298C72.6143 278.029 72.7324 276.829 71.9205 276.393L45.6782 262.293C44.7769 261.809 45.0471 260.45 46.0651 260.348L75.7058 257.363C76.6229 257.271 76.9728 256.117 76.2616 255.531L53.2743 236.582C52.4848 235.931 53.0149 234.651 54.0334 234.749L83.6868 237.605C84.6043 237.693 85.1725 236.63 84.5893 235.916L65.7405 212.847C65.0931 212.055 65.8627 210.903 66.8424 211.198L94.52 219.528C95.4983 219.822 96.2679 218.674 95.6238 217.881L40.2222 149.681C39.436 148.713 40.7132 147.436 41.681 148.222L109.881 203.624C110.674 204.268 111.822 203.498 111.528 202.52L103.198 174.842C102.903 173.863 104.055 173.093 104.847 173.74L127.917 192.589C128.63 193.172 129.693 192.604 129.605 191.687L126.75 162.033C126.651 161.015 127.931 160.485 128.582 161.274L147.531 184.262C148.117 184.973 149.271 184.623 149.363 183.706L152.348 154.065C152.45 153.047 153.809 152.777 154.293 153.678L168.393 179.92C168.83 180.732 170.029 180.614 170.299 179.733L179.008 151.244Z" fill="#65DB23"/>
</g>
<g clip-path="url(#clip2_10_1203)">
<path d="M177.937 150.583C178.975 149.247 180.994 149.247 182.032 150.583L205.228 180.447C229.118 211.205 256.764 238.851 287.521 262.741L317.386 285.937C318.722 286.975 318.722 288.994 317.386 290.032L287.521 313.228C256.764 337.118 229.118 364.764 205.228 395.521L182.032 425.386C180.994 426.722 178.975 426.722 177.937 425.386L154.741 395.521C130.851 364.764 103.205 337.118 72.4474 313.228L42.583 290.032C41.2467 288.994 41.2467 286.975 42.583 285.937L72.4474 262.741C103.205 238.851 130.851 211.205 154.741 180.447L177.937 150.583Z" fill="#F675C2"/>
</g>
<defs>
<clipPath id="clip0_10_1203">
<rect width="280" height="280" fill="white" transform="translate(40 148)"/>
</clipPath>
<clipPath id="clip1_10_1203">
<rect width="280" height="280" fill="white" transform="translate(40 148)"/>
</clipPath>
<clipPath id="clip2_10_1203">
<rect width="280" height="280" fill="white" transform="translate(40 148)"/>
</clipPath>
</defs>
</svg>
